<svg xmlns="http://www.w3.org/2000/svg" width="128" height="128" viewBox="0 0 128 128">
  <defs>
    <linearGradient id="background" x1="18" y1="12" x2="112" y2="118" gradientUnits="userSpaceOnUse">
      <stop stop-color="#2F88F5"/>
      <stop offset="1" stop-color="#6568E8"/>
    </linearGradient>
    <filter id="shadow" x="-20%" y="-20%" width="140%" height="150%">
      <feDropShadow dx="0" dy="5" stdDeviation="5" flood-color="#203F9A" flood-opacity=".26"/>
    </filter>
  </defs>
  <g transform="translate(12 12) scale(.8)">
    <rect x="4" y="4" width="120" height="120" rx="30" fill="url(#background)"/>
    <g filter="url(#shadow)">
      <path d="M27 29c0-7.2 5.8-13 13-13h42c7.2 0 13 5.8 13 13v27c0 7.2-5.8 13-13 13H57L42 81V69h-2c-7.2 0-13-5.8-13-13V29Z" fill="#fff"/>
      <path d="M45 55c0-6.6 5.4-12 12-12h33c6.6 0 12 5.4 12 12v25c0 6.6-5.4 12-12 12H75l-13 12V92h-5c-6.6 0-12-5.4-12-12V55Z" fill="#E7EEFF" stroke="#fff" stroke-width="4"/>
    </g>
    <path d="M54 59h29m0 0-7-7m7 7-7 7M91 76H62m0 0 7-7m-7 7 7 7" fill="none" stroke="#466FE5" stroke-linecap="round" stroke-linejoin="round" stroke-width="5"/>
  </g>
</svg>
